<mxfile host="app.diagrams.net" modified="2022-05-13T04:11:59.335Z" agent="5.0 (Windows NT 10.0; Win64; x64) AppleWebKit/537.36 (KHTML, like Gecko) Chrome/101.0.4951.64 Safari/537.36" etag="_azhCorBGIiZVdJxESKA" version="17.4.6" type="github">
  <diagram id="0N5EAT0uYaVRdyBHmvxT" name="Page-1">
    <mxGraphModel dx="2254" dy="859" grid="1" gridSize="10" guides="1" tooltips="1" connect="1" arrows="1" fold="1" page="1" pageScale="1" pageWidth="1100" pageHeight="1700" background="none" math="0" shadow="0">
      <root>
        <mxCell id="0" />
        <mxCell id="1" parent="0" />
        <mxCell id="eZgN1Aya_gJIHeBSr3sO-71" value="Each VM contains cookiejar framework and perfgate svc. The perfgate svc is responsible for&amp;nbsp; polling tasks from the queue while the cookiejar framework runs the tests" style="rounded=0;whiteSpace=wrap;html=1;verticalAlign=bottom;" parent="1" vertex="1">
          <mxGeometry x="20" y="970" width="770" height="120" as="geometry" />
        </mxCell>
        <mxCell id="eZgN1Aya_gJIHeBSr3sO-17" value="" style="edgeStyle=orthogonalEdgeStyle;rounded=0;orthogonalLoop=1;jettySize=auto;html=1;" parent="1" source="eZgN1Aya_gJIHeBSr3sO-3" target="eZgN1Aya_gJIHeBSr3sO-4" edge="1">
          <mxGeometry relative="1" as="geometry" />
        </mxCell>
        <mxCell id="eZgN1Aya_gJIHeBSr3sO-3" value="Run perf test for an app" style="ellipse;whiteSpace=wrap;html=1;" parent="1" vertex="1">
          <mxGeometry x="185" y="80" width="140" height="80" as="geometry" />
        </mxCell>
        <mxCell id="eZgN1Aya_gJIHeBSr3sO-18" value="" style="edgeStyle=orthogonalEdgeStyle;rounded=0;orthogonalLoop=1;jettySize=auto;html=1;" parent="1" source="eZgN1Aya_gJIHeBSr3sO-4" target="eZgN1Aya_gJIHeBSr3sO-5" edge="1">
          <mxGeometry relative="1" as="geometry" />
        </mxCell>
        <mxCell id="eZgN1Aya_gJIHeBSr3sO-4" value="Check if app exists in tenant store" style="shape=parallelogram;perimeter=parallelogramPerimeter;whiteSpace=wrap;html=1;fixedSize=1;" parent="1" vertex="1">
          <mxGeometry x="180" y="210" width="150" height="60" as="geometry" />
        </mxCell>
        <mxCell id="eZgN1Aya_gJIHeBSr3sO-5" value="Exists?" style="rhombus;whiteSpace=wrap;html=1;" parent="1" vertex="1">
          <mxGeometry x="185" y="320" width="140" height="90" as="geometry" />
        </mxCell>
        <mxCell id="eZgN1Aya_gJIHeBSr3sO-8" value="" style="endArrow=classic;html=1;rounded=0;exitX=0;exitY=0.5;exitDx=0;exitDy=0;" parent="1" source="eZgN1Aya_gJIHeBSr3sO-5" edge="1">
          <mxGeometry relative="1" as="geometry">
            <mxPoint x="210" y="370" as="sourcePoint" />
            <mxPoint x="60" y="450" as="targetPoint" />
            <Array as="points">
              <mxPoint x="60" y="365" />
            </Array>
          </mxGeometry>
        </mxCell>
        <mxCell id="eZgN1Aya_gJIHeBSr3sO-9" value="No" style="edgeLabel;resizable=0;html=1;align=center;verticalAlign=middle;" parent="eZgN1Aya_gJIHeBSr3sO-8" connectable="0" vertex="1">
          <mxGeometry relative="1" as="geometry" />
        </mxCell>
        <mxCell id="eZgN1Aya_gJIHeBSr3sO-16" value="" style="edgeStyle=orthogonalEdgeStyle;rounded=0;orthogonalLoop=1;jettySize=auto;html=1;" parent="1" source="eZgN1Aya_gJIHeBSr3sO-10" target="eZgN1Aya_gJIHeBSr3sO-15" edge="1">
          <mxGeometry relative="1" as="geometry" />
        </mxCell>
        <mxCell id="eZgN1Aya_gJIHeBSr3sO-10" value="Download from app URI" style="rounded=0;whiteSpace=wrap;html=1;" parent="1" vertex="1">
          <mxGeometry y="450" width="120" height="60" as="geometry" />
        </mxCell>
        <mxCell id="eZgN1Aya_gJIHeBSr3sO-11" value="" style="endArrow=classic;html=1;rounded=0;entryX=0.5;entryY=0;entryDx=0;entryDy=0;" parent="1" target="eZgN1Aya_gJIHeBSr3sO-13" edge="1">
          <mxGeometry relative="1" as="geometry">
            <mxPoint x="320" y="364.5" as="sourcePoint" />
            <mxPoint x="450" y="450" as="targetPoint" />
            <Array as="points">
              <mxPoint x="460" y="365" />
            </Array>
          </mxGeometry>
        </mxCell>
        <mxCell id="eZgN1Aya_gJIHeBSr3sO-12" value="Yes" style="edgeLabel;resizable=0;html=1;align=center;verticalAlign=middle;" parent="eZgN1Aya_gJIHeBSr3sO-11" connectable="0" vertex="1">
          <mxGeometry relative="1" as="geometry" />
        </mxCell>
        <mxCell id="eZgN1Aya_gJIHeBSr3sO-60" value="" style="edgeStyle=orthogonalEdgeStyle;rounded=0;orthogonalLoop=1;jettySize=auto;html=1;" parent="1" source="eZgN1Aya_gJIHeBSr3sO-13" target="eZgN1Aya_gJIHeBSr3sO-44" edge="1">
          <mxGeometry relative="1" as="geometry">
            <Array as="points">
              <mxPoint x="460" y="590" />
              <mxPoint x="460" y="590" />
            </Array>
          </mxGeometry>
        </mxCell>
        <mxCell id="eZgN1Aya_gJIHeBSr3sO-13" value="Run perf tests 1000 times" style="rounded=0;whiteSpace=wrap;html=1;" parent="1" vertex="1">
          <mxGeometry x="400" y="450" width="120" height="60" as="geometry" />
        </mxCell>
        <mxCell id="eZgN1Aya_gJIHeBSr3sO-31" style="edgeStyle=orthogonalEdgeStyle;rounded=0;orthogonalLoop=1;jettySize=auto;html=1;entryX=0;entryY=0.5;entryDx=0;entryDy=0;" parent="1" source="eZgN1Aya_gJIHeBSr3sO-15" target="eZgN1Aya_gJIHeBSr3sO-13" edge="1">
          <mxGeometry relative="1" as="geometry">
            <mxPoint x="340" y="480" as="targetPoint" />
          </mxGeometry>
        </mxCell>
        <mxCell id="eZgN1Aya_gJIHeBSr3sO-15" value="Install app for test tenant" style="rounded=0;whiteSpace=wrap;html=1;" parent="1" vertex="1">
          <mxGeometry y="590" width="120" height="60" as="geometry" />
        </mxCell>
        <mxCell id="eZgN1Aya_gJIHeBSr3sO-27" value="Run Perf Test for an App - User inputs app asset id and version&amp;nbsp; &amp;amp; email address to get the test report in Perfgate UI" style="shape=note;whiteSpace=wrap;html=1;backgroundOutline=1;darkOpacity=0.05;align=left;verticalAlign=top;" parent="1" vertex="1">
          <mxGeometry x="650" y="95" width="350" height="50" as="geometry" />
        </mxCell>
        <mxCell id="eZgN1Aya_gJIHeBSr3sO-30" value="Check if the app version exists in the test tenant. If the app and/or the app version does not exist for the test tenant, download the app from the app URI and install for the test tenant using graph api&amp;nbsp;&lt;br&gt;" style="shape=note;whiteSpace=wrap;html=1;backgroundOutline=1;darkOpacity=0.05;align=left;verticalAlign=top;" parent="1" vertex="1">
          <mxGeometry x="650" y="440" width="350" height="80" as="geometry" />
        </mxCell>
        <mxCell id="eZgN1Aya_gJIHeBSr3sO-79" style="edgeStyle=orthogonalEdgeStyle;rounded=0;orthogonalLoop=1;jettySize=auto;html=1;exitX=0;exitY=0.25;exitDx=0;exitDy=0;" parent="1" source="eZgN1Aya_gJIHeBSr3sO-44" target="eZgN1Aya_gJIHeBSr3sO-99" edge="1">
          <mxGeometry relative="1" as="geometry">
            <mxPoint x="455" y="730" as="targetPoint" />
            <mxPoint x="455" y="630" as="sourcePoint" />
            <Array as="points">
              <mxPoint x="330" y="598" />
              <mxPoint x="330" y="700" />
              <mxPoint x="75" y="700" />
            </Array>
          </mxGeometry>
        </mxCell>
        <mxCell id="eZgN1Aya_gJIHeBSr3sO-85" style="edgeStyle=orthogonalEdgeStyle;rounded=0;orthogonalLoop=1;jettySize=auto;html=1;entryX=0.5;entryY=0;entryDx=0;entryDy=0;entryPerimeter=0;exitX=1;exitY=0.75;exitDx=0;exitDy=0;" parent="1" source="eZgN1Aya_gJIHeBSr3sO-44" target="eZgN1Aya_gJIHeBSr3sO-84" edge="1">
          <mxGeometry relative="1" as="geometry">
            <Array as="points">
              <mxPoint x="620" y="612" />
              <mxPoint x="620" y="640" />
              <mxPoint x="1047" y="640" />
              <mxPoint x="1047" y="1120" />
              <mxPoint x="1059" y="1120" />
            </Array>
          </mxGeometry>
        </mxCell>
        <mxCell id="eZgN1Aya_gJIHeBSr3sO-86" value="store task in DB&lt;br&gt;" style="edgeLabel;html=1;align=center;verticalAlign=middle;resizable=0;points=[];" parent="eZgN1Aya_gJIHeBSr3sO-85" vertex="1" connectable="0">
          <mxGeometry x="0.1918" y="3" relative="1" as="geometry">
            <mxPoint as="offset" />
          </mxGeometry>
        </mxCell>
        <mxCell id="eZgN1Aya_gJIHeBSr3sO-108" style="edgeStyle=orthogonalEdgeStyle;rounded=0;orthogonalLoop=1;jettySize=auto;html=1;" parent="1" target="eZgN1Aya_gJIHeBSr3sO-102" edge="1">
          <mxGeometry relative="1" as="geometry">
            <mxPoint x="330" y="700" as="sourcePoint" />
          </mxGeometry>
        </mxCell>
        <mxCell id="eZgN1Aya_gJIHeBSr3sO-109" style="edgeStyle=orthogonalEdgeStyle;rounded=0;orthogonalLoop=1;jettySize=auto;html=1;exitX=0;exitY=0.25;exitDx=0;exitDy=0;" parent="1" source="eZgN1Aya_gJIHeBSr3sO-44" target="eZgN1Aya_gJIHeBSr3sO-103" edge="1">
          <mxGeometry relative="1" as="geometry">
            <Array as="points">
              <mxPoint x="330" y="598" />
              <mxPoint x="330" y="700" />
              <mxPoint x="245" y="700" />
            </Array>
          </mxGeometry>
        </mxCell>
        <mxCell id="eZgN1Aya_gJIHeBSr3sO-110" style="edgeStyle=orthogonalEdgeStyle;rounded=0;orthogonalLoop=1;jettySize=auto;html=1;" parent="1" source="eZgN1Aya_gJIHeBSr3sO-44" target="eZgN1Aya_gJIHeBSr3sO-101" edge="1">
          <mxGeometry relative="1" as="geometry">
            <Array as="points">
              <mxPoint x="330" y="600" />
              <mxPoint x="330" y="700" />
              <mxPoint x="665" y="700" />
            </Array>
          </mxGeometry>
        </mxCell>
        <mxCell id="eZgN1Aya_gJIHeBSr3sO-44" value="1. Create Task in DB&lt;br&gt;2. Distribute 1000 App Tests to VMs" style="shape=parallelogram;perimeter=parallelogramPerimeter;whiteSpace=wrap;html=1;fixedSize=1;" parent="1" vertex="1">
          <mxGeometry x="360" y="590" width="240" height="30" as="geometry" />
        </mxCell>
        <mxCell id="eZgN1Aya_gJIHeBSr3sO-77" style="edgeStyle=orthogonalEdgeStyle;rounded=0;orthogonalLoop=1;jettySize=auto;html=1;exitX=0.7;exitY=-0.025;exitDx=0;exitDy=0;exitPerimeter=0;" parent="1" source="eZgN1Aya_gJIHeBSr3sO-93" target="eZgN1Aya_gJIHeBSr3sO-101" edge="1">
          <mxGeometry relative="1" as="geometry">
            <mxPoint x="480" y="840" as="targetPoint" />
            <mxPoint x="735" y="1060" as="sourcePoint" />
            <Array as="points">
              <mxPoint x="625" y="930" />
              <mxPoint x="660" y="930" />
            </Array>
          </mxGeometry>
        </mxCell>
        <mxCell id="eZgN1Aya_gJIHeBSr3sO-81" value="poll" style="edgeLabel;html=1;align=center;verticalAlign=middle;resizable=0;points=[];" parent="eZgN1Aya_gJIHeBSr3sO-77" vertex="1" connectable="0">
          <mxGeometry x="-0.1398" y="2" relative="1" as="geometry">
            <mxPoint as="offset" />
          </mxGeometry>
        </mxCell>
        <mxCell id="eZgN1Aya_gJIHeBSr3sO-75" style="edgeStyle=orthogonalEdgeStyle;rounded=0;orthogonalLoop=1;jettySize=auto;html=1;exitX=0.7;exitY=-0.075;exitDx=0;exitDy=0;exitPerimeter=0;" parent="1" source="eZgN1Aya_gJIHeBSr3sO-94" target="eZgN1Aya_gJIHeBSr3sO-102" edge="1">
          <mxGeometry relative="1" as="geometry">
            <mxPoint x="460" y="840" as="targetPoint" />
            <mxPoint x="400" y="940" as="sourcePoint" />
            <Array as="points" />
          </mxGeometry>
        </mxCell>
        <mxCell id="eZgN1Aya_gJIHeBSr3sO-80" value="poll" style="edgeLabel;html=1;align=center;verticalAlign=middle;resizable=0;points=[];" parent="eZgN1Aya_gJIHeBSr3sO-75" vertex="1" connectable="0">
          <mxGeometry x="-0.219" y="-3" relative="1" as="geometry">
            <mxPoint as="offset" />
          </mxGeometry>
        </mxCell>
        <mxCell id="eZgN1Aya_gJIHeBSr3sO-62" style="edgeStyle=orthogonalEdgeStyle;rounded=0;orthogonalLoop=1;jettySize=auto;html=1;exitX=0.46;exitY=0.175;exitDx=0;exitDy=0;exitPerimeter=0;" parent="1" source="eZgN1Aya_gJIHeBSr3sO-92" target="eZgN1Aya_gJIHeBSr3sO-99" edge="1">
          <mxGeometry relative="1" as="geometry">
            <mxPoint x="75" y="1060" as="sourcePoint" />
            <mxPoint x="420" y="840" as="targetPoint" />
            <Array as="points">
              <mxPoint x="73" y="992" />
              <mxPoint x="73" y="930" />
              <mxPoint x="80" y="930" />
            </Array>
          </mxGeometry>
        </mxCell>
        <mxCell id="eZgN1Aya_gJIHeBSr3sO-72" value="poll" style="edgeLabel;html=1;align=center;verticalAlign=middle;resizable=0;points=[];" parent="eZgN1Aya_gJIHeBSr3sO-62" vertex="1" connectable="0">
          <mxGeometry x="0.1633" y="2" relative="1" as="geometry">
            <mxPoint as="offset" />
          </mxGeometry>
        </mxCell>
        <mxCell id="eZgN1Aya_gJIHeBSr3sO-73" style="edgeStyle=orthogonalEdgeStyle;rounded=0;orthogonalLoop=1;jettySize=auto;html=1;exitX=0.5;exitY=0;exitDx=0;exitDy=0;exitPerimeter=0;" parent="1" source="eZgN1Aya_gJIHeBSr3sO-95" target="eZgN1Aya_gJIHeBSr3sO-103" edge="1">
          <mxGeometry relative="1" as="geometry">
            <mxPoint x="260" y="1060" as="sourcePoint" />
            <mxPoint x="440" y="840" as="targetPoint" />
            <Array as="points">
              <mxPoint x="255" y="900" />
              <mxPoint x="255" y="900" />
            </Array>
          </mxGeometry>
        </mxCell>
        <mxCell id="eZgN1Aya_gJIHeBSr3sO-74" value="poll" style="edgeLabel;html=1;align=center;verticalAlign=middle;resizable=0;points=[];" parent="eZgN1Aya_gJIHeBSr3sO-73" vertex="1" connectable="0">
          <mxGeometry x="0.1633" y="2" relative="1" as="geometry">
            <mxPoint as="offset" />
          </mxGeometry>
        </mxCell>
        <mxCell id="eZgN1Aya_gJIHeBSr3sO-84" value="" style="verticalLabelPosition=bottom;html=1;verticalAlign=top;align=center;strokeColor=none;fillColor=#00BEF2;shape=mxgraph.azure.sql_database;" parent="1" vertex="1">
          <mxGeometry x="1040" y="1160" width="37.5" height="50" as="geometry" />
        </mxCell>
        <mxCell id="eZgN1Aya_gJIHeBSr3sO-90" value="Only one VM will be responsible for Peeking all queues for an appId. If it does not find an entry for that appId in all queues, it will mark the task complete. It will then trigger logic app for test report" style="shape=note;whiteSpace=wrap;html=1;backgroundOutline=1;darkOpacity=0.05;align=left;labelPosition=center;verticalLabelPosition=middle;verticalAlign=top;" parent="1" vertex="1">
          <mxGeometry x="710" y="850" width="330" height="80" as="geometry" />
        </mxCell>
        <mxCell id="eZgN1Aya_gJIHeBSr3sO-92" value="" style="verticalLabelPosition=bottom;html=1;verticalAlign=top;align=center;strokeColor=none;fillColor=#00BEF2;shape=mxgraph.azure.virtual_machine;" parent="1" vertex="1">
          <mxGeometry x="40" y="985" width="50" height="40" as="geometry" />
        </mxCell>
        <mxCell id="eZgN1Aya_gJIHeBSr3sO-125" style="edgeStyle=orthogonalEdgeStyle;rounded=0;orthogonalLoop=1;jettySize=auto;html=1;" parent="1" source="eZgN1Aya_gJIHeBSr3sO-93" target="eZgN1Aya_gJIHeBSr3sO-123" edge="1">
          <mxGeometry relative="1" as="geometry" />
        </mxCell>
        <mxCell id="eZgN1Aya_gJIHeBSr3sO-93" value="" style="verticalLabelPosition=bottom;html=1;verticalAlign=top;align=center;strokeColor=none;fillColor=#00BEF2;shape=mxgraph.azure.virtual_machine;" parent="1" vertex="1">
          <mxGeometry x="590" y="985" width="50" height="40" as="geometry" />
        </mxCell>
        <mxCell id="eZgN1Aya_gJIHeBSr3sO-94" value="" style="verticalLabelPosition=bottom;html=1;verticalAlign=top;align=center;strokeColor=none;fillColor=#00BEF2;shape=mxgraph.azure.virtual_machine;" parent="1" vertex="1">
          <mxGeometry x="390" y="985" width="50" height="40" as="geometry" />
        </mxCell>
        <mxCell id="eZgN1Aya_gJIHeBSr3sO-95" value="" style="verticalLabelPosition=bottom;html=1;verticalAlign=top;align=center;strokeColor=none;fillColor=#00BEF2;shape=mxgraph.azure.virtual_machine;" parent="1" vertex="1">
          <mxGeometry x="230" y="985" width="50" height="40" as="geometry" />
        </mxCell>
        <mxCell id="eZgN1Aya_gJIHeBSr3sO-99" value="Queue 1" style="sketch=0;outlineConnect=0;fontColor=#232F3E;gradientColor=none;strokeColor=#232F3E;fillColor=#ffffff;dashed=0;verticalLabelPosition=bottom;verticalAlign=top;align=center;html=1;fontSize=12;fontStyle=0;aspect=fixed;shape=mxgraph.aws4.resourceIcon;resIcon=mxgraph.aws4.queue;" parent="1" vertex="1">
          <mxGeometry x="40" y="770" width="70" height="70" as="geometry" />
        </mxCell>
        <mxCell id="eZgN1Aya_gJIHeBSr3sO-101" value="Queue...n" style="sketch=0;outlineConnect=0;fontColor=#232F3E;gradientColor=none;strokeColor=#232F3E;fillColor=#ffffff;dashed=0;verticalLabelPosition=bottom;verticalAlign=top;align=center;html=1;fontSize=12;fontStyle=0;aspect=fixed;shape=mxgraph.aws4.resourceIcon;resIcon=mxgraph.aws4.queue;" parent="1" vertex="1">
          <mxGeometry x="630" y="780" width="70" height="70" as="geometry" />
        </mxCell>
        <mxCell id="eZgN1Aya_gJIHeBSr3sO-102" value="Queue 3" style="sketch=0;outlineConnect=0;fontColor=#232F3E;gradientColor=none;strokeColor=#232F3E;fillColor=#ffffff;dashed=0;verticalLabelPosition=bottom;verticalAlign=top;align=center;html=1;fontSize=12;fontStyle=0;aspect=fixed;shape=mxgraph.aws4.resourceIcon;resIcon=mxgraph.aws4.queue;" parent="1" vertex="1">
          <mxGeometry x="390" y="780" width="70" height="70" as="geometry" />
        </mxCell>
        <mxCell id="eZgN1Aya_gJIHeBSr3sO-103" value="Queue 2" style="sketch=0;outlineConnect=0;fontColor=#232F3E;gradientColor=none;strokeColor=#232F3E;fillColor=#ffffff;dashed=0;verticalLabelPosition=bottom;verticalAlign=top;align=center;html=1;fontSize=12;fontStyle=0;aspect=fixed;shape=mxgraph.aws4.resourceIcon;resIcon=mxgraph.aws4.queue;" parent="1" vertex="1">
          <mxGeometry x="210" y="780" width="70" height="70" as="geometry" />
        </mxCell>
        <mxCell id="eZgN1Aya_gJIHeBSr3sO-127" style="edgeStyle=orthogonalEdgeStyle;rounded=0;orthogonalLoop=1;jettySize=auto;html=1;entryX=1.017;entryY=0.6;entryDx=0;entryDy=0;entryPerimeter=0;" parent="1" source="eZgN1Aya_gJIHeBSr3sO-113" target="eZgN1Aya_gJIHeBSr3sO-118" edge="1">
          <mxGeometry relative="1" as="geometry" />
        </mxCell>
        <mxCell id="eZgN1Aya_gJIHeBSr3sO-128" value="Yes" style="edgeLabel;html=1;align=center;verticalAlign=middle;resizable=0;points=[];" parent="eZgN1Aya_gJIHeBSr3sO-127" vertex="1" connectable="0">
          <mxGeometry x="-0.0882" y="-1" relative="1" as="geometry">
            <mxPoint as="offset" />
          </mxGeometry>
        </mxCell>
        <mxCell id="eZgN1Aya_gJIHeBSr3sO-129" style="edgeStyle=orthogonalEdgeStyle;rounded=0;orthogonalLoop=1;jettySize=auto;html=1;entryX=1;entryY=0.5;entryDx=0;entryDy=0;" parent="1" source="eZgN1Aya_gJIHeBSr3sO-113" target="eZgN1Aya_gJIHeBSr3sO-123" edge="1">
          <mxGeometry relative="1" as="geometry" />
        </mxCell>
        <mxCell id="eZgN1Aya_gJIHeBSr3sO-130" value="No" style="edgeLabel;html=1;align=center;verticalAlign=middle;resizable=0;points=[];" parent="eZgN1Aya_gJIHeBSr3sO-129" vertex="1" connectable="0">
          <mxGeometry x="-0.4657" y="1" relative="1" as="geometry">
            <mxPoint as="offset" />
          </mxGeometry>
        </mxCell>
        <mxCell id="eZgN1Aya_gJIHeBSr3sO-113" value="Task Complete?" style="rhombus;whiteSpace=wrap;html=1;" parent="1" vertex="1">
          <mxGeometry x="510" y="1270" width="140" height="50" as="geometry" />
        </mxCell>
        <mxCell id="eZgN1Aya_gJIHeBSr3sO-134" value="" style="edgeStyle=orthogonalEdgeStyle;rounded=0;orthogonalLoop=1;jettySize=auto;html=1;" parent="1" source="eZgN1Aya_gJIHeBSr3sO-118" target="eZgN1Aya_gJIHeBSr3sO-133" edge="1">
          <mxGeometry relative="1" as="geometry" />
        </mxCell>
        <mxCell id="eZgN1Aya_gJIHeBSr3sO-118" value="Trigger Logic App for report Generation" style="rounded=0;whiteSpace=wrap;html=1;" parent="1" vertex="1">
          <mxGeometry x="220" y="1300" width="120" height="70" as="geometry" />
        </mxCell>
        <mxCell id="eZgN1Aya_gJIHeBSr3sO-126" style="edgeStyle=orthogonalEdgeStyle;rounded=0;orthogonalLoop=1;jettySize=auto;html=1;exitX=0.5;exitY=1;exitDx=0;exitDy=0;entryX=0.5;entryY=0;entryDx=0;entryDy=0;" parent="1" source="eZgN1Aya_gJIHeBSr3sO-123" target="eZgN1Aya_gJIHeBSr3sO-113" edge="1">
          <mxGeometry relative="1" as="geometry" />
        </mxCell>
        <mxCell id="OFP7weFowfb_HkGWOXDm-1" style="edgeStyle=orthogonalEdgeStyle;rounded=0;orthogonalLoop=1;jettySize=auto;html=1;entryX=-0.107;entryY=0.732;entryDx=0;entryDy=0;entryPerimeter=0;" edge="1" parent="1" source="eZgN1Aya_gJIHeBSr3sO-123" target="eZgN1Aya_gJIHeBSr3sO-84">
          <mxGeometry relative="1" as="geometry" />
        </mxCell>
        <mxCell id="eZgN1Aya_gJIHeBSr3sO-123" value="&lt;span style=&quot;text-align: left&quot;&gt;Read tasks from DB&amp;nbsp; and Peek of all queues of an app for completion.&amp;nbsp;&lt;/span&gt;" style="shape=parallelogram;perimeter=parallelogramPerimeter;whiteSpace=wrap;html=1;fixedSize=1;" parent="1" vertex="1">
          <mxGeometry x="737.5" y="1130" width="232.5" height="60" as="geometry" />
        </mxCell>
        <mxCell id="eZgN1Aya_gJIHeBSr3sO-133" value="End Test Flow" style="ellipse;whiteSpace=wrap;html=1;rounded=0;" parent="1" vertex="1">
          <mxGeometry x="220" y="1455" width="120" height="60" as="geometry" />
        </mxCell>
        <mxCell id="OFP7weFowfb_HkGWOXDm-4" value="&lt;font style=&quot;font-size: 22px&quot;&gt;Per Gate Flow&lt;/font&gt;" style="text;html=1;align=center;verticalAlign=middle;resizable=0;points=[];autosize=1;strokeColor=none;fillColor=none;" vertex="1" parent="1">
          <mxGeometry x="425" y="10" width="160" height="20" as="geometry" />
        </mxCell>
      </root>
    </mxGraphModel>
  </diagram>
</mxfile>
